<svg width="24" height="23" viewBox="0 0 24 23" fill="none" xmlns="http://www.w3.org/2000/svg">
<path d="M2.3375 7.31252C5.20625 7.31877 8.06875 7.31877 10.9375 7.31877C14.1625 7.31877 17.3875 7.31877 20.6188 7.31252C20.8313 7.31252 20.8688 7.37502 20.8688 7.56877C20.8563 8.15627 20.8625 8.73752 20.8625 9.32502C20.8625 9.91877 21.375 10.4563 21.9188 10.4563C22.4625 10.45 22.9625 9.91877 22.9625 9.33752C22.9625 7.30002 22.975 5.26252 22.9625 3.21877C22.95 1.38752 21.525 -0.00622907 19.725 2.09371e-05C14.2313 0.0187709 8.7375 0.00627094 3.24375 0.00627094C1.8625 0.00627094 0.68125 0.825021 0.2 2.11252C0.11875 2.32502 0.06875 2.55002 0 2.76877C0 6.73752 0 10.7063 0 14.675C0 14.7563 0 14.8313 0 14.9125C0.0125 14.9188 0.025 14.9188 0.04375 14.9188C0.175 16.4438 1.59375 17.75 3.1375 17.7563C3.95625 17.7625 4.775 17.7563 5.6 17.7563C6.84375 17.7563 8.08125 17.7625 9.325 17.7563C10.025 17.7563 10.5813 17.0813 10.4063 16.4625C10.275 16.0063 9.825 15.6625 9.34375 15.6625C7.33125 15.6625 5.3125 15.6625 3.3 15.6625C3.19375 15.6625 3.08125 15.6563 2.975 15.6375C2.55625 15.5625 2.09375 15.1 2.1 14.4375C2.1125 12.1438 2.10625 9.84377 2.1 7.55002C2.09375 7.34377 2.15625 7.31252 2.3375 7.31252ZM2.09375 4.95627C2.1125 4.40002 2.11875 3.84377 2.09375 3.29377C2.06875 2.73127 2.55625 2.10002 3.28125 2.10002C8.75 2.11877 14.2125 2.11252 19.6813 2.11252C20.3938 2.11252 20.8563 2.58127 20.8625 3.30002C20.8625 3.86877 20.8563 4.43752 20.8688 5.01252C20.875 5.18752 20.825 5.23127 20.65 5.23127C17.5875 5.22502 14.525 5.22502 11.4688 5.22502C8.4375 5.22502 5.40625 5.22502 2.38125 5.23127C2.1625 5.22502 2.08125 5.19377 2.09375 4.95627Z" fill="#09BAA2"/>
<path d="M23.9127 15.6374C23.3565 12.2499 20.0315 9.91861 16.6252 10.5436C13.1752 11.1811 10.894 14.5186 11.5877 17.9311C12.244 21.1686 15.3252 23.3999 18.5877 22.8999C21.2127 22.4999 22.9315 20.9499 23.7565 18.4186C23.8627 18.0874 23.919 17.7311 24.0002 17.3874C24.0002 17.2936 24.0002 17.1999 24.0002 17.1061C24.0002 17.0124 24.0002 16.9186 24.0002 16.8249C24.0002 16.7436 24.0002 16.6686 24.0002 16.5874C24.0002 16.4936 24.0002 16.3999 24.0002 16.3061C24.0002 16.2249 24.0002 16.1499 24.0002 16.0686C23.9127 15.9499 23.9377 15.7874 23.9127 15.6374ZM17.7252 20.8686C15.4315 20.8624 13.5627 18.9874 13.5752 16.6936C13.5877 14.3936 15.4752 12.5186 17.7502 12.5374C20.0565 12.5561 21.9065 14.4249 21.9002 16.7186C21.894 19.0249 20.0315 20.8749 17.7252 20.8686Z" fill="#09BAA2"/>
<path d="M19.8128 15.6625C19.5253 15.6625 19.2378 15.6563 18.9441 15.6625C18.8191 15.6688 18.7878 15.6313 18.7878 15.5063C18.7941 15.1938 18.8003 14.8813 18.7878 14.5688C18.7628 13.9625 18.3253 13.55 17.7253 13.5625C17.1128 13.575 16.7003 13.9813 16.6878 14.5938C16.6816 14.9438 16.6878 15.2938 16.6878 15.65C16.6878 16 16.6878 16.35 16.6878 16.7063C16.6941 17.3188 17.0691 17.7313 17.6816 17.7563C18.4128 17.7813 19.1503 17.7813 19.8816 17.7563C20.5128 17.7375 20.8878 17.3 20.8691 16.6625C20.8503 16.0438 20.4441 15.6688 19.8128 15.6625Z" fill="#09BAA2"/>
</svg>
