<svg width="1024" height="720" viewBox="0 0 1024 720" fill="none" xmlns="http://www.w3.org/2000/svg">
<g clip-path="url(#clip0_1563_31)">
<rect width="1024" height="720" fill="white"/>
<path d="M1024.7 246L952 269C937 273.8 922.3 279.4 908 286C907.6 286.2 907.2 286.3 906.9 286.5C868.9 304.1 841.3 338.8 833.8 380C833.6 381 833.5 381.9 833.3 382.9C833.3 382.9 828.5 413.3 827.8 464C827.6 476.1 828 488.2 828.6 500.3C829.7 521.1 827.7 572 783.1 581.3C783.1 581.3 746.7 589.1 695.5 594.9C671.3 597.7 647.1 600.8 622.9 604.3L622 604.4C622 604.4 614.1 605.4 601.9 610.8C565.9 627 541.7 661.3 537.3 700.5C536.6 706.5 536.2 713 536 720.1H1024.7V246Z" fill="#09BAA2"/>
<path d="M0 0H294V0C294 152.983 169.983 277 17 277H0V0Z" fill="#FF537C"/>
<path d="M0 820L3.50591e-06 526V526C152.983 526 277 650.017 277 803L277 820L0 820Z" fill="#2E2E2E"/>
</g>
<defs>
<clipPath id="clip0_1563_31">
<rect width="1024" height="720" fill="white"/>
</clipPath>
</defs>
</svg>
