<svg width="1024" height="720" viewBox="0 0 1024 720" fill="none" xmlns="http://www.w3.org/2000/svg">
<g clip-path="url(#clip0_1348_4)">
<rect width="1024" height="720" fill="white"/>
<path d="M1024 580L1002.13 586.792C997.62 588.209 993.198 589.863 988.897 591.812C988.777 591.871 988.656 591.9 988.566 591.96C977.136 597.157 968.834 607.403 966.578 619.57C966.517 619.865 966.487 620.131 966.427 620.426C966.427 620.426 964.983 629.403 964.773 644.375C964.713 647.948 964.833 651.521 965.014 655.094C965.344 661.236 964.743 676.267 951.327 679.013C951.327 679.013 940.378 681.316 924.977 683.029C917.698 683.856 910.419 684.771 903.139 685.805L902.869 685.834C902.869 685.834 900.492 686.13 896.823 687.724C885.994 692.508 878.715 702.637 877.391 714.212C877.18 715.984 877.06 717.903 877 720H1024V580Z" fill="#09BAA2" fill-opacity="0.3"/>
<path d="M0 0H130C130 67.931 74.931 123 7 123H0V0Z" fill="#FF537C" fill-opacity="0.3"/>
<path d="M0 720L1.45484e-06 598C63.5127 598 115 649.487 115 713L115 720L0 720Z" fill="#2E2E2E" fill-opacity="0.3"/>
</g>
<defs>
<clipPath id="clip0_1348_4">
<rect width="1024" height="720" fill="white"/>
</clipPath>
</defs>
</svg>
