<svg width="1024" height="720" viewBox="0 0 1024 720" fill="none" xmlns="http://www.w3.org/2000/svg">
<rect width="1024" height="720" fill="white"/>
<path d="M1024 450L981.9 463.099C973.214 465.832 964.701 469.021 956.421 472.78C956.189 472.894 955.957 472.951 955.784 473.065C933.778 483.088 917.795 502.85 913.452 526.313C913.336 526.883 913.278 527.395 913.163 527.965C913.163 527.965 910.383 545.277 909.978 574.151C909.862 581.042 910.094 587.933 910.441 594.824C911.078 606.669 909.92 635.657 884.092 640.953C884.092 640.953 863.014 645.395 833.364 648.699C819.351 650.293 805.337 652.059 791.323 654.052L790.802 654.109C790.802 654.109 786.227 654.678 779.162 657.754C758.315 666.98 744.301 686.513 741.753 708.838C741.347 712.255 741.116 715.957 741 720H1024V450Z" fill="#09BAA2" fill-opacity="0.3"/>
<path d="M0 720L1.81258e-06 568V568C78.9767 568 143 632.023 143 711L143 720L0 720Z" fill="#2E2E2E" fill-opacity="0.3"/>
<path d="M0 0H176V0C176 92.2316 101.232 167 9 167H0V0Z" fill="#FF537C" fill-opacity="0.3"/>
</svg>
